<svg xmlns="http://www.w3.org/2000/svg" x="0px" y="0px"
width="150" height="150"
viewBox="0 0 172 172"
style=" fill:#000000;"><g fill="none" fill-rule="nonzero" stroke="none" stroke-width="1" stroke-linecap="butt" stroke-linejoin="miter" stroke-miterlimit="10" stroke-dasharray="" stroke-dashoffset="0" font-family="none" font-weight="none" font-size="none" text-anchor="none" style="mix-blend-mode: normal"><path d="M0,172v-172h172v172z" fill="none"></path><g fill="#000000"><path d="M86,5.73333c-3.1648,0 -5.73333,2.56853 -5.73333,5.73333v5.73333h-5.73333c-2.06765,-0.02924 -3.99087,1.05709 -5.03322,2.843c-1.04236,1.78592 -1.04236,3.99474 0,5.78066c1.04236,1.78592 2.96558,2.87225 5.03322,2.843h5.73333v14.82604l-22.93333,22.93334v21.98151l-32.2724,18.44297c-2.74627,1.57093 -3.69854,5.06988 -2.1276,7.81614c1.57093,2.74627 5.06988,3.69854 7.81615,2.12761l3.65052,-2.07161v40.07734h40.13333v-17.2c0,-6.33533 5.13133,-11.46667 11.46667,-11.46667c6.33533,0 11.46667,5.13133 11.46667,11.46667v17.2h40.13333v-40.07734l3.65052,2.07161c2.74627,1.57093 6.24521,0.61866 7.81614,-2.12761c1.57093,-2.74627 0.61866,-6.24521 -2.12761,-7.81614l-32.27239,-18.44297v-21.98151l-22.93333,-22.93334v-14.82604h5.73333c2.06765,0.02924 3.99087,-1.05709 5.03322,-2.843c1.04236,-1.78592 1.04236,-3.99474 0,-5.78066c-1.04236,-1.78592 -2.96558,-2.87225 -5.03322,-2.843h-5.73333v-5.73333c0,-3.1648 -2.56853,-5.73333 -5.73333,-5.73333zM86,74.53333c3.15333,0 5.73333,2.58 5.73333,5.73333v17.2h-11.46667v-17.2c0,-3.15333 2.58,-5.73333 5.73333,-5.73333z"></path></g></g></svg>